<svg xmlns="http://www.w3.org/2000/svg" width="801" height="243" viewBox="0 0 801 243" fill="none"><path d="M192.526 136.055C176.587 198.537 240.678 198.551 240.705 198.551H176.584C176.433 198.551 112.483 198.488 128.406 136.055L154.778 32.6602H218.899L192.526 136.055ZM278.805 159.317H211.095L225.035 108.336H291.151L278.805 159.317ZM298.72 83.6416H231.01L244.95 32.6602H311.066L298.72 83.6416Z" fill="url(#paint0_linear_6_75)"></path><path d="M271.271 214.948L264.672 240.805L278.209 187.751L271.271 214.948ZM126.562 150.827C127.572 158.392 130.251 164.991 134.599 170.591C149.388 189.629 177.815 189.849 179.022 189.849H217.561C217.545 189.885 217.53 189.922 217.514 189.958H275.398L262.527 240.397C262.551 240.401 262.575 240.406 262.599 240.409L262.511 240.75L164.913 240.761C164.626 240.761 137.395 240.526 123.948 223.183C116.032 212.983 114.331 198.797 118.865 180.999L126.562 150.827ZM114.268 201.905C114.332 203.083 114.433 204.226 114.569 205.339L114.682 206.208C114.485 204.826 114.347 203.393 114.268 201.905ZM115.506 185.974C114.439 191.564 114.055 196.605 114.232 201.152C114.204 200.435 114.188 199.705 114.188 198.962C114.188 195.001 114.606 190.681 115.506 185.974ZM116.448 181.629C116.541 181.246 116.636 180.86 116.734 180.472C116.636 180.86 116.541 181.246 116.448 181.629ZM115.927 183.91C115.906 184.007 115.883 184.104 115.862 184.201C115.883 184.104 115.906 184.007 115.927 183.91Z" fill="url(#paint1_linear_6_75)"></path><mask id="mask0_6_75" style="mask-type:alpha" maskUnits="userSpaceOnUse" x="0" y="0" width="143" height="200"><path d="M130.274 144.47H105.046L62.5098 187.979C63.1201 189.115 63.4678 190.413 63.4678 191.793C63.4675 196.251 59.8536 199.865 55.3955 199.865C50.9374 199.865 47.3225 196.251 47.3223 191.793C47.3223 187.335 50.9372 183.72 55.3955 183.72C56.8539 183.72 58.2206 184.11 59.4014 184.786L102.516 140.687L103.171 140.016H130.274V144.47ZM131.666 126.934H66.6152L20.25 173.299C20.4757 174.042 20.5996 174.83 20.5996 175.647C20.5995 180.106 16.9854 183.72 12.5273 183.72C8.06915 183.72 4.45422 180.106 4.4541 175.647C4.4541 171.189 8.06908 167.575 12.5273 167.575C14.5215 167.575 16.3454 168.3 17.7539 169.498L64.1191 123.132L64.7715 122.479H131.666V126.934ZM68.2012 78.498C72.6595 78.498 76.2744 82.112 76.2744 86.5703C76.2744 88.0796 75.8587 89.4919 75.1377 90.7002L87.2539 103.551H130.542V108.004H85.333L84.6738 107.305L71.8926 93.75C70.7863 94.3199 69.5313 94.6426 68.2012 94.6426C63.7431 94.6423 60.129 91.0284 60.1289 86.5703C60.1289 82.1122 63.7431 78.4983 68.2012 78.498ZM98.8213 78.498C102.507 78.4981 105.613 80.9694 106.58 84.3447H130.554V88.7979H106.58C105.613 92.1727 102.507 94.6435 98.8213 94.6436C94.3632 94.6434 90.7494 91.0293 90.749 86.5713C90.749 82.113 94.363 78.4982 98.8213 78.498ZM8.07324 60.126C11.8535 60.1262 15.0256 62.7251 15.9033 66.2334L142.729 65.8477L142.743 70.3008L15.752 70.6875C14.7026 73.9273 11.6626 76.2713 8.07324 76.2715C3.61505 76.2714 0.000115468 72.6564 0 68.1982C0.000231398 63.7401 3.61512 60.1261 8.07324 60.126ZM29.7861 0C34.2442 0.000180117 37.8582 3.61416 37.8584 8.07227C37.8584 9.68178 37.385 11.1803 36.5732 12.4395L76.2305 47.8623H142.86V52.3164H74.5322L73.8984 51.75L33.1924 15.3906C32.1573 15.8732 31.0034 16.1455 29.7861 16.1455C25.3281 16.1452 21.713 12.5303 21.7129 8.07227C21.7131 3.61423 25.3281 0.000295079 29.7861 0Z" fill="#FAFAFB"></path></mask><g mask="url(#mask0_6_75)"><path d="M-17.4531 -16.5801L141.637 35.1349L107.6 164.694L70.8184 218.494L-17.4531 214.671V-16.5801Z" fill="black"></path></g><path d="M318.566 234L323.004 207.269H339.136L338.667 210.141H325.771L324.257 219.173H336.317L335.847 222.044H323.787L322.273 231.129H335.377L334.908 234H318.566ZM388.588 207.269L384.15 234H381.018L369.949 213.012H369.688L366.19 234H362.953L367.391 207.269H370.524L381.644 228.309H381.905L385.403 207.269H388.588ZM434.349 215.623C434.218 214.744 433.992 213.956 433.67 213.26C433.357 212.555 432.939 211.959 432.417 211.472C431.895 210.976 431.264 210.598 430.524 210.336C429.793 210.067 428.945 209.932 427.979 209.932C426.396 209.932 424.864 210.341 423.385 211.159C421.914 211.977 420.64 213.182 419.561 214.774C418.49 216.367 417.764 218.32 417.381 220.635C416.998 222.949 417.037 224.903 417.498 226.495C417.968 228.087 418.773 229.293 419.913 230.11C421.062 230.928 422.463 231.337 424.116 231.337C425.647 231.337 427.074 231.011 428.397 230.358C429.72 229.697 430.829 228.766 431.725 227.565C432.621 226.356 433.2 224.933 433.461 223.297L434.401 223.506H426.361L426.883 220.635H437.064L436.541 223.506C436.193 225.716 435.419 227.635 434.218 229.262C433.017 230.889 431.521 232.147 429.728 233.034C427.936 233.922 425.978 234.365 423.855 234.365C421.488 234.365 419.504 233.809 417.903 232.695C416.302 231.581 415.175 229.997 414.522 227.944C413.87 225.89 413.779 223.454 414.248 220.635C414.588 218.52 415.179 216.619 416.023 214.931C416.876 213.234 417.92 211.79 419.156 210.598C420.4 209.405 421.788 208.492 423.32 207.857C424.86 207.221 426.483 206.904 428.188 206.904C429.598 206.904 430.877 207.117 432.025 207.543C433.183 207.961 434.179 208.557 435.014 209.331C435.85 210.097 436.498 211.015 436.959 212.085C437.42 213.147 437.664 214.326 437.69 215.623H434.349ZM470.458 207.269L466.02 234H462.783L467.221 207.269H470.458ZM520.565 207.269L516.127 234H512.995L501.926 213.012H501.665L498.167 234H494.93L499.368 207.269H502.501L513.621 228.309H513.882L517.38 207.269H520.565ZM545.025 234L549.462 207.269H565.595L565.125 210.141H552.229L550.715 219.173H562.775L562.306 222.044H550.245L548.731 231.129H561.836L561.366 234H545.025ZM589.412 234L593.849 207.269H609.982L609.512 210.141H596.616L595.102 219.173H607.163L606.693 222.044H594.633L593.119 231.129H606.223L605.753 234H589.412ZM633.799 234L638.237 207.269H647.269C649.357 207.269 651.01 207.622 652.228 208.326C653.455 209.031 654.286 210.001 654.721 211.237C655.165 212.473 655.257 213.882 654.996 215.466C654.734 217.032 654.178 218.424 653.325 219.643C652.481 220.861 651.332 221.818 649.879 222.514C648.435 223.21 646.677 223.558 644.606 223.558H637.297L637.819 220.635H645.024C646.451 220.635 647.634 220.426 648.574 220.008C649.514 219.59 650.245 218.994 650.767 218.22C651.289 217.446 651.637 216.528 651.811 215.466C651.985 214.387 651.937 213.452 651.667 212.66C651.406 211.859 650.871 211.241 650.062 210.806C649.261 210.363 648.139 210.141 646.694 210.141H641.004L637.036 234H633.799ZM648.365 221.992L652.959 234H649.2L644.71 221.992H648.365ZM687.404 207.269L682.966 234H679.729L684.167 207.269H687.404ZM737.511 207.269L733.074 234H729.941L718.873 213.012H718.612L715.114 234H711.877L716.315 207.269H719.447L730.568 228.309H730.829L734.327 207.269H737.511ZM783.272 215.623C783.142 214.744 782.915 213.956 782.593 213.26C782.28 212.555 781.863 211.959 781.34 211.472C780.818 210.976 780.188 210.598 779.448 210.336C778.717 210.067 777.869 209.932 776.903 209.932C775.319 209.932 773.788 210.341 772.308 211.159C770.838 211.977 769.563 213.182 768.484 214.774C767.414 216.367 766.687 218.32 766.304 220.635C765.922 222.949 765.961 224.903 766.422 226.495C766.892 228.087 767.697 229.293 768.837 230.11C769.985 230.928 771.386 231.337 773.039 231.337C774.571 231.337 775.998 231.011 777.32 230.358C778.643 229.697 779.752 228.766 780.649 227.565C781.545 226.356 782.124 224.933 782.385 223.297L783.324 223.506H775.284L775.806 220.635H785.987L785.465 223.506C785.117 225.716 784.342 227.635 783.142 229.262C781.941 230.889 780.444 232.147 778.652 233.034C776.859 233.922 774.901 234.365 772.778 234.365C770.412 234.365 768.428 233.809 766.827 232.695C765.225 231.581 764.099 229.997 763.446 227.944C762.793 225.89 762.702 223.454 763.172 220.635C763.511 218.52 764.103 216.619 764.947 214.931C765.8 213.234 766.844 211.79 768.08 210.598C769.324 209.405 770.712 208.492 772.243 207.857C773.783 207.221 775.406 206.904 777.112 206.904C778.521 206.904 779.8 207.117 780.949 207.543C782.106 207.961 783.103 208.557 783.938 209.331C784.773 210.097 785.421 211.015 785.883 212.085C786.344 213.147 786.587 214.326 786.614 215.623H783.272Z" fill="black"></path><path d="M692.32 164.492H662.489L741.278 33.3242H777.153L789.208 164.492H759.377L752.221 63.2982H751.193L692.32 164.492ZM703.646 112.935H774.11L768.487 134.582H698.023L703.646 112.935Z" fill="black"></path><path d="M587.246 56.189L593.104 33.3242H701.242L695.384 56.189H655.073L627.596 164.492H600.08L627.557 56.189H587.246Z" fill="black"></path><path d="M566.425 100.701C562.8 114.706 557.109 126.598 549.353 136.376C541.639 146.153 532.61 153.583 522.265 158.664C511.962 163.745 501.11 166.286 489.709 166.286C477.751 166.286 467.68 163.574 459.497 158.152C451.356 152.729 445.805 144.894 442.844 134.646C439.887 124.356 440.244 111.952 443.914 97.4351C447.457 83.3874 453.107 71.4747 460.863 61.6969C468.623 51.8763 477.699 44.4042 488.091 39.2804C498.487 34.114 509.407 31.5308 520.851 31.5308C532.723 31.5308 542.728 34.2634 550.865 39.7288C559.044 45.1941 564.59 53.0932 567.5 63.4261C570.458 73.7164 570.099 86.1415 566.425 100.701ZM539.001 97.4351C541.29 88.4258 541.886 80.8683 540.792 74.7624C539.744 68.6139 537.237 63.9599 533.27 60.8002C529.303 57.6406 524.084 56.0607 517.612 56.0607C510.582 56.0607 503.979 57.8114 497.8 61.3126C491.665 64.8138 486.291 69.8949 481.68 76.5558C477.114 83.1739 473.646 91.2225 471.274 100.701C468.939 109.753 468.32 117.311 469.418 123.374C470.56 129.437 473.137 134.027 477.15 137.144C481.21 140.218 486.455 141.756 492.884 141.756C499.87 141.756 506.406 140.048 512.491 136.632C518.623 133.173 523.969 128.156 528.531 121.581C533.096 114.963 536.586 106.914 539.001 97.4351Z" fill="black"></path><path d="M331.581 164.492L364.916 33.3242H392.754L365.277 141.628H421.725L415.867 164.492H331.581Z" fill="black"></path><defs><linearGradient id="paint0_linear_6_75" x1="261.85" y1="115.703" x2="251.063" y2="182.302" gradientUnits="userSpaceOnUse"><stop stop-color="#32D8C8"></stop><stop offset="1" stop-color="#2E5AC0"></stop></linearGradient><linearGradient id="paint1_linear_6_75" x1="218.175" y1="163.83" x2="198.358" y2="250.063" gradientUnits="userSpaceOnUse"><stop stop-color="#32D8C8"></stop><stop offset="1" stop-color="#2E5AC0"></stop></linearGradient></defs></svg>